<svg width="297" height="60" viewBox="0 0 297 60" fill="none" xmlns="http://www.w3.org/2000/svg">
<g clip-path="url(#clip0_611_85)">
<path d="M23.895 14.0325C24.502 13.2621 25.2864 12.65 26.1811 12.2482C27.0758 11.8464 28.0544 11.667 29.0335 11.7252C30.0126 11.7834 30.9631 12.0775 31.8039 12.5824C32.6447 13.0873 33.351 13.7881 33.8625 14.625C40.2654 12.6843 46.9056 11.6369 53.595 11.5125C50.8841 8.03995 47.4402 5.20861 43.5089 3.22051C39.5777 1.23241 35.2561 0.136582 30.8525 0.0112159C26.4489 -0.11415 22.0719 0.734048 18.0339 2.49527C13.9959 4.25649 10.3965 6.8873 7.49243 10.2C13.083 10.8771 18.5832 12.1622 23.895 14.0325Z" fill="#17D4A7"/>
<path d="M55.3875 14.04L53.6249 14.085C47.1827 14.2123 40.7882 15.2217 34.62 17.085C34.6276 17.2074 34.6276 17.3301 34.62 17.4525C34.6207 18.8377 34.1076 20.1739 33.1799 21.2025C35.1613 23.9462 36.9964 26.7927 38.6775 29.73C39.4125 31.015 40.0925 32.28 40.7175 33.525H41.025C41.8293 33.5176 42.6159 33.7614 43.275 34.2225C48.33 29.9175 52.8149 24.135 56.7299 16.875L56.85 16.6575" fill="#17D4A7"/>
<path d="M31.095 22.695C30.3319 23.0221 29.5102 23.1905 28.68 23.19C27.833 23.1936 26.9949 23.0192 26.2197 22.6781C25.4445 22.337 24.7495 21.8368 24.18 21.21C16.62 25.035 8.71505 31.095 3.36005 40.71C7.00305 42.0953 10.8184 42.976 14.7 43.3275C15.0037 42.7243 15.4703 42.2181 16.0469 41.8665C16.6235 41.5148 17.2871 41.3318 17.9624 41.338C18.6378 41.3443 19.2979 41.5396 19.8679 41.9018C20.4379 42.2641 20.895 42.7787 21.1875 43.3875H21.51C27.1616 42.955 32.6378 41.228 37.515 38.34C37.3677 37.957 37.2915 37.5504 37.29 37.14C37.291 36.6631 37.3884 36.1912 37.5766 35.753C37.7648 35.3147 38.0398 34.9191 38.385 34.59C36.2656 30.4428 33.8283 26.466 31.095 22.695Z" fill="#17D4A7"/>
<path d="M43.5375 56.4525C44.1825 51.3375 43.0275 45.8775 41.0925 40.7025H41.0475C40.3911 40.7033 39.7455 40.5354 39.1725 40.215C33.8475 43.4871 27.8174 45.4388 21.585 45.9075H21.2625C20.9886 46.5741 20.5212 47.1434 19.9207 47.542C19.3203 47.9405 18.6142 48.1501 17.8935 48.1436C17.1728 48.1372 16.4706 47.915 15.8773 47.5058C15.2841 47.0965 14.827 46.5189 14.565 45.8475C10.6704 45.5237 6.83659 44.6812 3.16504 43.3425C4.92927 46.8747 7.3733 50.0239 10.3571 52.6095C13.341 55.1951 16.8059 57.1663 20.5532 58.41C24.3004 59.6538 28.2563 60.1456 32.194 59.8573C36.1318 59.569 39.9738 58.5063 43.5 56.73L43.5375 56.4525Z" fill="#17D4A7"/>
<path d="M58.1324 19.5975C54.6673 25.8953 50.1205 31.5339 44.7 36.255C44.7761 36.5361 44.8139 36.8263 44.8124 37.1175C44.8088 37.6379 44.6916 38.1512 44.4687 38.6215C44.2459 39.0918 43.9229 39.5077 43.5225 39.84C45.615 45.42 46.5224 50.5575 46.2299 55.2075C51.9767 51.5184 56.29 45.9761 58.4548 39.4994C60.6196 33.0227 60.5059 26.0007 58.1324 19.5975Z" fill="#17D4A7"/>
<path d="M22.92 18.9525C22.6817 18.1206 22.6457 17.2437 22.815 16.395C17.2456 14.4556 11.4692 13.1719 5.60254 12.57C2.89773 16.345 1.10809 20.6975 0.375243 25.2833C-0.357602 29.8691 -0.0135583 34.5625 1.38003 38.9925C6.24003 30.495 13.5375 23.7 22.92 18.9525Z" fill="#17D4A7"/>
</g>
<path d="M101.798 29.0283V42.0316C101.287 42.6475 100.499 43.3161 99.4329 44.0372C98.3674 44.7434 96.9928 45.3519 95.3111 45.8627C93.6293 46.3735 91.5953 46.6289 89.2079 46.6289C87.0908 46.6289 85.1613 46.2834 83.4196 45.5922C81.6779 44.8861 80.1764 43.8569 78.9151 42.5048C77.6689 41.1526 76.7079 39.5 76.0323 37.5469C75.3565 35.5787 75.0187 33.3327 75.0187 30.8086V28.7578C75.0187 26.2338 75.3416 23.9877 75.9871 22.0195C76.6479 20.0514 77.5862 18.3912 78.8025 17.0391C80.0187 15.6869 81.4676 14.6577 83.1493 13.9517C84.831 13.2455 86.7004 12.8924 88.7574 12.8924C91.6103 12.8924 93.9522 13.3582 95.7843 14.2897C97.6165 15.2061 99.0122 16.4832 99.9735 18.1208C100.95 19.7434 101.55 21.6064 101.775 23.7097H95.2216C95.0565 22.5979 94.741 21.6289 94.2751 20.8026C93.8101 19.9763 93.1422 19.3302 92.2714 18.8645C91.4151 18.3988 90.3039 18.1659 88.9376 18.1659C87.8115 18.1659 86.8054 18.3988 85.9195 18.8645C85.0487 19.3152 84.313 19.9838 83.7124 20.8702C83.1118 21.7566 82.6538 22.8533 82.3385 24.1604C82.0232 25.4675 81.8655 26.9849 81.8655 28.7128V30.8086C81.8655 32.5213 82.0307 34.0387 82.361 35.3609C82.6914 36.6679 83.1794 37.7722 83.825 38.6737C84.4857 39.5601 85.2965 40.2287 86.2575 40.6793C87.2184 41.1301 88.337 41.3555 89.6132 41.3555C90.6793 41.3555 91.5652 41.2653 92.2714 41.085C92.9919 40.9048 93.5694 40.6869 94.0048 40.4315C94.4559 40.161 94.8009 39.9056 95.0408 39.6653V33.851H88.87V29.0283H101.798ZM113.69 11.5628V46.1782H107.181V11.5628H113.69ZM118.014 34.2341V33.7608C118.014 31.973 118.269 30.3278 118.78 28.8254C119.29 27.308 120.034 25.9934 121.01 24.8816C121.986 23.7699 123.187 22.906 124.613 22.29C126.039 21.659 127.676 21.3435 129.523 21.3435C131.37 21.3435 133.014 21.659 134.455 22.29C135.897 22.906 137.106 23.7699 138.082 24.8816C139.073 25.9934 139.824 27.308 140.334 28.8254C140.845 30.3278 141.099 31.973 141.099 33.7608V34.2341C141.099 36.0069 140.845 37.652 140.334 39.1695C139.824 40.6719 139.073 41.9865 138.082 43.1133C137.106 44.2251 135.905 45.089 134.478 45.7049C133.051 46.3209 131.415 46.6289 129.568 46.6289C127.721 46.6289 126.077 46.3209 124.636 45.7049C123.209 45.089 122.001 44.2251 121.01 43.1133C120.034 41.9865 119.29 40.6719 118.78 39.1695C118.269 37.652 118.014 36.0069 118.014 34.2341ZM124.501 33.7608V34.2341C124.501 35.2557 124.591 36.2097 124.771 37.0961C124.951 37.9826 125.237 38.7638 125.627 39.4399C126.032 40.1009 126.558 40.6193 127.204 40.9949C127.849 41.3705 128.637 41.5583 129.568 41.5583C130.469 41.5583 131.242 41.3705 131.888 40.9949C132.534 40.6193 133.051 40.1009 133.442 39.4399C133.833 38.7638 134.118 37.9826 134.298 37.0961C134.493 36.2097 134.591 35.2557 134.591 34.2341V33.7608C134.591 32.7692 134.493 31.8378 134.298 30.9664C134.118 30.0799 133.824 29.2986 133.419 28.6226C133.029 27.9315 132.511 27.3906 131.865 27C131.22 26.6093 130.439 26.414 129.523 26.414C128.608 26.414 127.826 26.6093 127.18 27C126.55 27.3906 126.032 27.9315 125.627 28.6226C125.237 29.2986 124.951 30.0799 124.771 30.9664C124.591 31.8378 124.501 32.7692 124.501 33.7608ZM145.086 11.5628H151.573V40.5893L150.92 46.1782H145.086V11.5628ZM167 33.7383V34.2115C167 36.0294 166.805 37.6971 166.415 39.2145C166.04 40.732 165.454 42.0466 164.658 43.1584C163.863 44.2551 162.871 45.1115 161.685 45.7275C160.514 46.3284 159.133 46.6289 157.541 46.6289C156.054 46.6289 154.763 46.3284 153.667 45.7275C152.586 45.1265 151.678 44.2776 150.942 43.1809C150.207 42.0841 149.613 40.7995 149.162 39.3272C148.712 37.8548 148.374 36.2473 148.149 34.5045V33.4678C148.374 31.725 148.712 30.1175 149.162 28.6451C149.613 27.1728 150.207 25.8882 150.942 24.7914C151.678 23.6947 152.586 22.8459 153.667 22.2449C154.748 21.6439 156.025 21.3435 157.496 21.3435C159.102 21.3435 160.499 21.6514 161.685 22.2674C162.887 22.8684 163.877 23.7247 164.658 24.8365C165.454 25.9333 166.04 27.2404 166.415 28.7578C166.805 30.2602 167 31.9204 167 33.7383ZM160.514 34.2115V33.7383C160.514 32.7467 160.439 31.8152 160.289 30.9438C160.153 30.0574 159.913 29.2837 159.568 28.6226C159.222 27.9465 158.75 27.4132 158.149 27.0225C157.564 26.6319 156.805 26.4366 155.875 26.4366C154.989 26.4366 154.238 26.5868 153.622 26.8873C153.006 27.1878 152.496 27.6085 152.09 28.1493C151.7 28.6902 151.408 29.3362 151.212 30.0874C151.017 30.8237 150.897 31.6349 150.851 32.5213V35.4736C150.897 36.6605 151.092 37.7121 151.437 38.6286C151.798 39.53 152.339 40.2437 153.059 40.7695C153.795 41.2804 154.748 41.5358 155.92 41.5358C156.835 41.5358 157.593 41.3555 158.194 40.9949C158.795 40.6343 159.26 40.1235 159.59 39.4625C159.935 38.8013 160.176 38.0276 160.311 37.1412C160.447 36.2398 160.514 35.2632 160.514 34.2115ZM184.185 40.6793V29.817C184.185 29.0357 184.058 28.3672 183.802 27.8113C183.547 27.2404 183.149 26.7972 182.608 26.4817C182.083 26.1662 181.4 26.0084 180.559 26.0084C179.838 26.0084 179.215 26.1361 178.689 26.3915C178.164 26.6319 177.759 26.985 177.473 27.4507C177.188 27.9015 177.045 28.4348 177.045 29.0508H170.559C170.559 28.0141 170.799 27.0301 171.28 26.0985C171.76 25.167 172.459 24.3483 173.375 23.6421C174.29 22.921 175.378 22.3576 176.64 21.9519C177.916 21.5463 179.343 21.3435 180.919 21.3435C182.811 21.3435 184.493 21.659 185.964 22.29C187.436 22.921 188.592 23.8674 189.433 25.1295C190.289 26.3915 190.716 27.969 190.716 29.8621V40.2963C190.716 41.6334 190.799 42.7301 190.964 43.5866C191.13 44.4279 191.369 45.164 191.685 45.795V46.1782H185.131C184.816 45.5171 184.575 44.6908 184.41 43.6992C184.26 42.6926 184.185 41.686 184.185 40.6793ZM185.041 31.3269L185.086 35.0003H181.46C180.604 35.0003 179.861 35.098 179.23 35.2933C178.6 35.4886 178.081 35.7665 177.676 36.1271C177.271 36.4726 176.971 36.8783 176.775 37.3441C176.595 37.8098 176.505 38.3206 176.505 38.8765C176.505 39.4324 176.632 39.9357 176.888 40.3865C177.143 40.8221 177.511 41.1677 177.991 41.4231C178.472 41.6634 179.035 41.7836 179.68 41.7836C180.656 41.7836 181.505 41.5883 182.225 41.1977C182.947 40.8071 183.502 40.3263 183.892 39.7554C184.297 39.1845 184.508 38.6436 184.523 38.1328L186.235 40.8822C185.995 41.4982 185.664 42.1367 185.244 42.7978C184.838 43.4588 184.32 44.0824 183.689 44.6682C183.059 45.2392 182.301 45.7124 181.415 46.088C180.529 46.4486 179.478 46.6289 178.261 46.6289C176.715 46.6289 175.311 46.3209 174.05 45.7049C172.804 45.0739 171.813 44.21 171.077 43.1133C170.356 42.0015 169.996 40.7394 169.996 39.3272C169.996 38.0501 170.236 36.9159 170.717 35.9243C171.198 34.9327 171.902 34.0988 172.834 33.4228C173.78 32.7317 174.959 32.2133 176.37 31.8677C177.782 31.5072 179.418 31.3269 181.28 31.3269H185.041ZM202.563 11.5628V46.1782H196.055V11.5628H202.563ZM214.41 26.4817V55.5532H207.924V21.7942H213.937L214.41 26.4817ZM229.839 33.7157V34.189C229.839 35.9619 229.628 37.607 229.208 39.1244C228.803 40.6418 228.202 41.9639 227.406 43.0907C226.61 44.2025 225.619 45.0739 224.433 45.7049C223.262 46.3209 221.91 46.6289 220.379 46.6289C218.892 46.6289 217.601 46.3284 216.504 45.7275C215.408 45.1265 214.485 44.2852 213.735 43.2034C212.999 42.1067 212.406 40.8371 211.955 39.3948C211.505 37.9525 211.159 36.405 210.919 34.7524V33.5129C211.159 31.7401 211.505 30.1175 211.955 28.6451C212.406 27.1577 212.999 25.8732 213.735 24.7914C214.485 23.6947 215.401 22.8459 216.482 22.2449C217.578 21.6439 218.862 21.3435 220.334 21.3435C221.88 21.3435 223.239 21.6365 224.41 22.2223C225.597 22.8083 226.588 23.6496 227.383 24.7464C228.194 25.8431 228.803 27.1503 229.208 28.6676C229.628 30.1851 229.839 31.8677 229.839 33.7157ZM223.329 34.189V33.7157C223.329 32.679 223.239 31.725 223.059 30.8537C222.894 29.9672 222.623 29.1935 222.248 28.5325C221.887 27.8714 221.408 27.3605 220.807 27C220.221 26.6244 219.508 26.4366 218.667 26.4366C217.781 26.4366 217.023 26.5793 216.392 26.8648C215.777 27.1503 215.274 27.5634 214.884 28.1043C214.492 28.6451 214.2 29.2912 214.005 30.0424C213.81 30.7936 213.69 31.6424 213.645 32.5889V35.7214C213.719 36.8333 213.93 37.8323 214.275 38.7187C214.621 39.5901 215.154 40.2812 215.874 40.7921C216.595 41.3029 217.541 41.5583 218.712 41.5583C219.568 41.5583 220.289 41.3705 220.874 40.9949C221.46 40.6043 221.933 40.0709 222.293 39.3948C222.669 38.7187 222.932 37.9375 223.081 37.0511C223.246 36.1647 223.329 35.2107 223.329 34.189ZM240.717 21.7942V46.1782H234.208V21.7942H240.717ZM233.802 15.439C233.802 14.4925 234.133 13.7112 234.793 13.0952C235.454 12.4793 236.34 12.1712 237.451 12.1712C238.547 12.1712 239.425 12.4793 240.086 13.0952C240.761 13.7112 241.1 14.4925 241.1 15.439C241.1 16.3855 240.761 17.1667 240.086 17.7827C239.425 18.3988 238.547 18.7067 237.451 18.7067C236.34 18.7067 235.454 18.3988 234.793 17.7827C234.133 17.1667 233.802 16.3855 233.802 15.439ZM252.428 27V46.1782H245.942V21.7942H252.022L252.428 27ZM251.483 33.1298H249.725C249.725 31.3269 249.958 29.7043 250.424 28.262C250.889 26.8047 251.543 25.5652 252.383 24.5436C253.224 23.5069 254.223 22.7181 255.378 22.1773C256.55 21.6214 257.856 21.3435 259.297 21.3435C260.439 21.3435 261.482 21.5087 262.428 21.8393C263.374 22.1698 264.185 22.6956 264.86 23.4168C265.551 24.1379 266.077 25.0919 266.437 26.2789C266.812 27.4658 267 28.9156 267 30.6283V46.1782H260.469V30.6057C260.469 29.5241 260.319 28.6827 260.018 28.0817C259.718 27.4807 259.275 27.0601 258.689 26.8197C258.119 26.5643 257.414 26.4366 256.572 26.4366C255.701 26.4366 254.943 26.6094 254.297 26.955C253.667 27.3005 253.141 27.7813 252.721 28.3973C252.316 28.9982 252.008 29.7043 251.797 30.5156C251.587 31.3269 251.483 32.1983 251.483 33.1298ZM287.36 21.7942H293.239V45.3669C293.239 47.5904 292.743 49.476 291.753 51.0234C290.777 52.5859 289.41 53.7653 287.653 54.5616C285.896 55.3729 283.855 55.7786 281.527 55.7786C280.506 55.7786 279.425 55.6433 278.284 55.3729C277.158 55.1024 276.077 54.6818 275.041 54.1109C274.02 53.5399 273.164 52.8188 272.473 51.9474L275.334 48.1163C276.084 48.9877 276.955 49.6637 277.946 50.1445C278.937 50.6404 280.033 50.8882 281.234 50.8882C282.406 50.8882 283.396 50.6704 284.207 50.2347C285.018 49.814 285.642 49.1905 286.077 48.3642C286.513 47.5529 286.73 46.5688 286.73 45.412V27.4282L287.36 21.7942ZM270.964 34.2791V33.8058C270.964 31.9429 271.19 30.2527 271.64 28.7353C272.106 27.2028 272.759 25.8882 273.599 24.7914C274.455 23.6947 275.491 22.8459 276.707 22.2449C277.924 21.6439 279.298 21.3435 280.829 21.3435C282.451 21.3435 283.81 21.6439 284.906 22.2449C286.002 22.8459 286.903 23.7022 287.609 24.814C288.314 25.9108 288.862 27.2104 289.252 28.7128C289.657 30.2001 289.973 31.8302 290.198 33.603V34.6397C289.973 36.3375 289.635 37.9149 289.185 39.3723C288.734 40.8296 288.141 42.1067 287.406 43.2034C286.669 44.2852 285.754 45.1265 284.657 45.7275C283.577 46.3284 282.286 46.6289 280.784 46.6289C279.283 46.6289 277.924 46.3209 276.707 45.7049C275.506 45.089 274.477 44.2251 273.622 43.1133C272.766 42.0015 272.106 40.6944 271.64 39.192C271.19 37.6896 270.964 36.052 270.964 34.2791ZM277.451 33.8058V34.2791C277.451 35.2857 277.548 36.2248 277.743 37.0961C277.939 37.9675 278.239 38.7413 278.644 39.4173C279.065 40.0784 279.583 40.5967 280.198 40.9723C280.829 41.3329 281.573 41.5133 282.428 41.5133C283.614 41.5133 284.583 41.2653 285.334 40.7695C286.085 40.2587 286.647 39.5601 287.023 38.6737C287.398 37.7873 287.616 36.7656 287.676 35.6088V32.6565C287.645 31.71 287.518 30.8611 287.293 30.1099C287.068 29.3438 286.752 28.6902 286.347 28.1493C285.942 27.6085 285.416 27.1878 284.771 26.8873C284.125 26.5868 283.359 26.4366 282.473 26.4366C281.618 26.4366 280.874 26.6319 280.243 27.0225C279.628 27.3981 279.109 27.9164 278.69 28.5775C278.284 29.2385 277.977 30.0198 277.766 30.9212C277.556 31.8077 277.451 32.7692 277.451 33.8058Z" fill="white"/>
<defs>
<clipPath id="clip0_611_85">
<rect width="60" height="60" fill="white"/>
</clipPath>
</defs>
</svg>
