<svg width="192" height="192" viewBox="0 0 192 192" fill="none" xmlns="http://www.w3.org/2000/svg">
<g clip-path="url(#clip0_904_35304)">
<path d="M79.8218 53.6861C81.4304 51.6446 83.5089 50.0224 85.8799 48.9578C88.251 47.8931 90.8443 47.4176 93.4388 47.5718C96.0334 47.726 98.5521 48.5054 100.78 49.8434C103.009 51.1815 104.88 53.0386 106.236 55.2563C123.203 50.1135 140.8 47.3379 158.527 47.0081C151.343 37.8059 142.216 30.3028 131.799 25.0344C121.381 19.7659 109.929 16.862 98.2591 16.5297C86.5896 16.1975 74.9905 18.4453 64.2899 23.1125C53.5892 27.7797 44.0507 34.7514 36.355 43.53C51.1701 45.3245 65.7454 48.73 79.8218 53.6861Z" fill="#17D4A7"/>
<path d="M163.277 53.7059L158.606 53.8252C141.534 54.1627 124.589 56.8375 108.243 61.7752C108.263 62.0995 108.263 62.4248 108.243 62.7492C108.245 66.4198 106.885 69.9607 104.427 72.6867C109.677 79.9575 114.54 87.5006 118.995 95.2845C120.943 98.6898 122.745 102.042 124.401 105.341H125.216C127.348 105.322 129.432 105.968 131.179 107.19C144.574 95.7814 156.46 80.4577 166.834 61.2187L167.152 60.6423" fill="#17D4A7"/>
<path d="M98.902 76.6418C96.8798 77.5086 94.7022 77.9549 92.5021 77.9535C90.2577 77.9631 88.0366 77.501 85.9823 76.5971C83.928 75.6932 82.0863 74.3676 80.5771 72.7065C60.5431 82.8427 39.595 98.9017 25.4043 124.381C35.0583 128.053 45.1689 130.387 55.4553 131.318C56.26 129.719 57.4963 128.378 59.0244 127.446C60.5524 126.514 62.3109 126.029 64.1006 126.046C65.8903 126.062 67.6396 126.58 69.1502 127.54C70.6607 128.5 71.872 129.864 72.647 131.477H73.5017C88.4783 130.331 102.99 125.754 115.915 118.101C115.524 117.086 115.323 116.009 115.319 114.921C115.321 113.657 115.579 112.407 116.078 111.245C116.577 110.084 117.306 109.036 118.22 108.164C112.604 97.1735 106.145 86.6348 98.902 76.6418Z" fill="#17D4A7"/>
<path d="M131.874 166.099C133.583 152.544 130.523 138.075 125.395 124.362H125.276C123.536 124.364 121.825 123.919 120.307 123.07C106.196 131.741 90.2159 136.913 73.7001 138.155H72.8456C72.1196 139.921 70.8811 141.43 69.2898 142.486C67.6985 143.542 65.8274 144.098 63.9176 144.081C62.0078 144.064 60.1469 143.475 58.5747 142.39C57.0026 141.306 55.7913 139.775 55.0971 137.996C44.7765 137.138 34.6168 134.905 24.8872 131.358C29.5624 140.718 36.0391 149.063 43.9463 155.915C51.8535 162.767 61.0356 167.991 70.9658 171.287C80.896 174.582 91.3791 175.886 101.814 175.122C112.249 174.358 122.43 171.542 131.775 166.835L131.874 166.099Z" fill="#17D4A7"/>
<path d="M170.551 68.4334C161.368 85.1227 149.319 100.065 134.955 112.576C135.157 113.321 135.257 114.09 135.253 114.861C135.243 116.24 134.933 117.601 134.342 118.847C133.752 120.093 132.896 121.195 131.834 122.076C137.38 136.863 139.784 150.477 139.009 162.8C154.238 153.024 165.668 138.337 171.405 121.173C177.142 104.01 176.84 85.4019 170.551 68.4334Z" fill="#17D4A7"/>
<path d="M77.2382 66.7242C76.6067 64.5195 76.5113 62.1958 76.9599 59.9467C62.201 54.8072 46.8935 51.4056 31.3469 49.8105C24.1792 59.8143 19.4366 71.3484 17.4946 83.5008C15.5525 95.6532 16.4642 108.091 20.1573 119.83C33.0363 97.3118 52.3746 79.3051 77.2382 66.7242Z" fill="#17D4A7"/>
</g>
<defs>
<clipPath id="clip0_904_35304">
<rect width="159" height="159" fill="white" transform="translate(16.5 16.5)"/>
</clipPath>
</defs>
</svg>
